<svg version="1" xmlns="http://www.w3.org/2000/svg" width="1390.667" height="1390.667"
     viewBox="0 0 1043.000000 1043.000000">
    <path d="M449.2 1.5C423 7.2 402.6 25 394 49.7c-2.7 8-3 9.2-3.7 20.4-.5 9.4 1.3 23.5 3.8 28 .9 1.7-.5 2.7-12.6 9.4-13.5 7.5-40.2 23.2-40.7 24-.4.5-.8.6-.8.2 0-.5-1.2 0-2.7 1.1-1.6 1.1-5.2 3.2-8.1 4.8-2.9 1.6-6.1 3.3-7 3.9-5.1 3-18.2 10.5-21.4 12.4-17.4 9.8-30.3 17.3-31.5 18.3-.7.6-1.3.7-1.3.4 0-.4-.6-.2-1.2.4-2 1.7-28.9 17-29.9 17-.5 0-.9.4-.9.8s-1.2 1.3-2.7 2c-1.6.6-5 2.5-7.8 4.1-2.7 1.7-6.1 3.6-7.5 4.4-5.3 3.1-16.2 9.3-19 10.8-11 6.1-14 8.4-14 10.9 0 1.4 1 3.7 2.3 5.2 1.2 1.5 4.5 5.8 7.2 9.5 5.6 7.6 25 33.3 26.2 34.8.5.5 4.9 6.4 9.8 13 10.4 13.9 10 13.4 12.3 16.1 5.9 7.3 16.2 21.5 16.2 22.4 0 .5-1.5 2.4-3.3 4.3-13 13.3-18.5 25.8-19.9 45.2-.3 5.1 3.9 20.1 7.9 27.8 3.2 6.1 16.4 19.7 19.1 19.7.4 0 3.6 2 6.9 4.5 6.6 4.7 8 7.7 7 14.3-1 6.5-12.6 23.1-18.2 26-3.1 1.6.4 1.5 5.1-.2 17.1-6 27.4-14.8 29-24.6.8-5.2 1.1-6.6 1.9-8.3 1.2-2.7 6.3-4.4 11-3.6 6.5 1.2 8.1 1.6 12.5 3.9 5.4 2.8 6 2.1 1.3-1.6-2.1-1.6-4.4-3.6-5.3-4.4-1.7-1.7-12.7-8.8-18-11.8-1.9-1-7.2-3.1-11.8-4.6-4.5-1.5-10.3-4.2-12.9-6-4.3-3-12.6-13.3-11.8-14.6.2-.4-.2-1.8-.9-3.2-3.3-6.3-3.7-23.2-.7-31 1.4-3.9 6-8.7 10.2-10.8 5-2.6 6.3-2.5 7.9.5.7 1.4 1.7 2.5 2.2 2.5.4 0 .8.5.8 1.1 0 .6.6 1.7 1.3 2.4 1.8 2.1 2.4 2.9 11.2 14.5 4.4 5.8 8.2 10.7 8.5 11 .3.3 1.6 2.1 3 4 1.3 1.9 2.8 3.9 3.2 4.5.5.5 3.6 4.6 6.9 9 3.3 4.4 6.9 9.1 8 10.5 1 1.4 4.8 6.4 8.4 11.2 3.6 4.9 6.9 8.8 7.3 8.8.4 0 1.9-1 3.4-2.3l5.5-4.4c1.5-1.2 3.7-3 4.8-4 1.1-1 9-7.7 17.5-14.8 8.5-7.1 15.7-13.2 16-13.5.3-.3 5.9-5 12.5-10.5s12.5-10.4 13.1-11c.7-.5 3.1-2.6 5.4-4.4 2.3-1.9 4.8-4 5.4-4.5.6-.6 6.5-5.6 13.1-11.1s12.2-10.2 12.5-10.5c.3-.3 3-2.5 6-5 3-2.4 6.2-5 7-5.8 5.3-4.7 8.9-7.7 12-10.1 1.9-1.4 4.1-3.4 4.8-4.4.7-.9 1.7-1.5 2.1-1.3.7.5.7 1.6-.4 22.6-.8 15.6-1.2 24.4-1.9 38.9-.3 5.7-.8 14.9-1.1 20.5-.3 5.5-.7 15.5-1.1 22.1-.3 6.6-.7 16.5-1 22-.3 5.5-.7 13.6-.9 18-.2 4.4-.6 13.2-1 19.5-.3 6.3-.8 15.8-1 21.2-.2 5.3-.6 14.9-1 21.5-.3 6.5-.8 16.1-1 21.3-.3 5.2-.8 14.4-1.1 20.5-.3 6-.7 14.6-.9 19-.5 11.4-1.4 31.6-2 41.5-.2 4.7-.7 13.4-1 19.5-.2 6-.7 15.9-1 22-.3 6-.8 15.5-1 21-.2 5.5-.7 14-1 19-.3 4.9-.7 13.7-1 19.5-.2 5.8-.7 15.9-1 22.5-.4 6.6-.8 15.4-1 19.5-.2 4.1-.6 13.1-1 20s-.8 16.3-1.1 21c-.6 12.9-1.2 24.4-1.3 25.7-.1.6-1 1-2.2.8-1.8-.4-6-.8-17.9-2-1.9-.2-5.3-.6-7.5-.9-2.2-.2-7.1-.7-11-1.1-3.8-.4-8.1-.9-9.5-1-1.4-.1-5.4-.6-9-.9-3.6-.4-8.1-.9-10-1.1-1.9-.3-6-.7-9-1-5.5-.5-10-.9-19.5-2-2.7-.3-7-.7-9.5-1-5.7-.5-14.1-1.4-20-2.1-2.5-.3-6.5-.7-9-1-2.5-.2-6.5-.6-9-.9-2.5-.2-6.7-.7-9.5-1-2.7-.3-7.2-.8-10-1.1-6-.5-13.9-1.4-18-1.9-1.6-.2-6.1-.6-10-1-3.8-.3-7.2-.8-7.6-1.1-.4-.2-1 .4-1.2 1.3-.3 1-.5 54.6-.5 119.1l.1 117.2h605l-.6-6.3c-.4-3.4-.8-7.3-1-8.7-.3-1.4-.7-5-1.1-8-.4-3-.9-6.2-1.1-7-.2-.8-.9-5.1-1.4-9.5-.6-4.4-1.3-9.1-1.5-10.5-.3-1.4-.7-4.8-1.1-7.5-.3-2.8-.8-5.9-1-7-.2-1.1-.7-4.3-1.1-7-1.2-9.1-1.4-10.5-1.9-13.3-.3-1.5-.8-4.5-1.1-6.7-1.7-13.1-2.4-17.7-3.1-21-.3-1.7-.7-4.6-.9-6.5-.2-1.9-.5-4.6-.7-6-.3-1.4-.8-4.8-1.1-7.5-.4-2.8-.9-6-1.2-7.3-.2-1.2-.7-4.1-.9-6.5-.3-2.3-.7-5.7-1-7.5-.8-5.2-1.4-9.5-1.9-13.2-.8-5.8-2.6-17.3-3-20-.6-3-3.5-23.8-4.2-29.5-.2-2.2-.7-4.6-.9-5.3-.2-.7-.7-4-1.1-7.5-.4-3.4-.8-6.7-.9-7.2-.9-4.6-1.6-8.5-2-11.5-.2-1.9-.4-3.5-.5-3.5-.1 0-.3-1.8-.4-4-.5-7.1-1.4-8.6-4.4-8-1.5.3-4.7.8-7.2 1-2.5.3-5.5.7-6.7 1-2.2.5-13 1.7-16.5 1.9-1 0-1.8.3-1.8.6s-1.7.6-3.8.6c-4 .1-12.8 1.1-17.7 2-1.6.3-5 .7-7.5.9-2.5.2-5.5.6-6.7.9-1.2.3-4.6.7-7.5 1.1-2.9.3-6.4.7-7.8.9-1.4.2-5 .7-8 1-3 .4-7.3.9-9.5 1.2-2.2.4-5.1.8-6.5.9-1.4.2-4.7.6-7.5.9-2.7.4-6.6.9-8.5 1.1-7.8 1-13.6 1.8-15.5 2.1-2.2.4-12.5 1.5-16.4 1.8-1.6.1-2.5-.5-2.7-1.7-.1-.9.1-1.7.4-1.7.4 0 .7-1.5.8-3.3 0-3.1 1-11.2 1.8-15.2.3-1.8.8-4.9 2.2-16 .3-2.2.7-5.4 1-7 .2-1.7.7-4.8.9-7 .3-2.2.7-5.1.9-6.5.9-5.4 1.7-11.6 2.1-14.5.8-7.3 2-15.6 2.9-20 .2-1.1.7-4.7 1-8 .4-3.3.9-7.1 1.1-8.5.2-1.4.6-4.7 1-7.3.4-2.7.8-5.9 1.1-7 .4-2.2 1.3-8.8 1.9-13.7.5-4.4 1.6-12.4 1.9-14 .5-2.7 1.6-10.2 3.7-26 1.1-8.5 2.2-16.8 2.5-18.4.3-1.6.7-4.8.9-7 .2-2.3.6-5 .8-6.1.3-1.1.8-4.9 1.2-8.5.4-3.6.9-6.7 1-7.1.2-.3.6-3 .9-6 .3-2.9.8-6.3 1-7.5.2-1.2.7-4.5 1.1-7.5.3-3 .8-6.5 1-7.9 1.3-8.4 1.8-11.9 2.1-14.7.5-4.8 1.5-11.6 1.9-13.3.2-.8.6-4 1-7 .3-3 .7-6.4.9-7.5.2-1.1.7-4.7 1.2-8 .4-3.3.8-6.2.9-6.5 0-.3.5-3.2.9-6.5s1-7.4 1.2-9.1c.3-1.7.6-4.6.9-6.5.2-1.9.6-5.2.9-7.4.4-2.2.9-5.8 1.2-8 .4-2.2.8-4.7.9-5.6.2-.8.6-4.2.9-7.5.4-3.2.9-6.8 1.1-7.9.6-2.4 1.6-9.4 1.7-11.5 0-.8.4-3.5.8-6 .5-2.5 1.2-7.7 1.5-11.5.4-3.9.9-7.2 1-7.5.2-.3.7-3 1-6 .9-7.1 1.1-8.7 1.8-13.5.4-2.2.9-6 1.3-8.5.3-2.4.8-4.8 1-5.1.2-.4.7-3.8.9-7.6.6-7.1.7-8.3 1.8-14.8.4-2.2.9-5.9 1.2-8.2.3-2.4 1-7.6 1.5-11.5.6-4 1.3-8.7 1.5-10.3 1.4-10.5 3.7-26.8 4-28.6.2-1.2.7-4.7 1.1-7.8.3-3.1.8-6.3.9-7.2.7-3.6 1.8-12.6 1.9-15.2.1-1.5.3-2.7.6-2.7s.5-1.2.6-2.8c.1-3.1 1.3-13 1.9-15.2.2-.8.7-3.9 1-6.9.4-3 .8-6.1 1-7 .1-.9.6-4.3 1-7.6.9-7.3 1.5-11.7 3-21.5.2-1.4.7-5 1-8 .3-3 .8-6.3 1.1-7.2.3-.9.7-3.9.9-6.5.2-2.6.7-6.2 1.1-7.8.3-1.7.7-4.8.9-7 .2-2.2.4-4 .5-4 .1 0 .3-1.6.6-3.5.5-4.7 1.3-10 1.8-13 .3-1.4.7-4.5 1-7 .3-2.5.9-6.5 1.3-9 .3-2.5.6-5.5.7-6.8 0-1.2.2-2.2.6-2.2.3 0 .5-1.2.5-2.8.1-3.2 1.3-12.7 2.1-15.8.5-1.9.1-2.4-2.3-3-1.5-.4-3.2-.9-3.8-1.3-.5-.3-1.2-.6-1.5-.6-.3-.1-7.7-2.5-16.5-5.5s-16.2-5.5-16.5-5.5c-1.1-.2-26.6-8.7-28.5-9.5-1.1-.5-6.5-2.3-11.9-4-5.5-1.7-10.4-3.4-11-3.8-.6-.3-1.6-.7-2.3-.8-1.6-.3-20.2-6.3-22.8-7.4-1.1-.5-6.5-2.3-12-4-5.5-1.7-10.9-3.5-12-4-2.3-1-26.7-9-27.7-9.1-.4 0-3.8-1.2-7.5-2.6-3.7-1.3-7.5-2.6-8.3-2.8-2.2-.5-14.1-4.5-16.5-5.5-1.1-.5-3.9-1.4-6.2-2.1-4.1-1.2-4.3-1.1-14.5 4.7-17.1 9.8-14.9 9.4-21.1 3.2-9-9.1-20.8-15.9-33.3-19.3-8-2.2-25.2-2.7-33.2-1z"/>
</svg>